# xmcd
#
# Track frame offsets: 
#        150
#        13650
#        26765
#        39375
#
# Disc length: 687 seconds
#
# Revision: 0
# Processed by: cddbd v1.5.2PL0 Copyright (c) Steve Scherf et al.
# Submitted via: ExactAudioCopy v0.99pb4
#
DISCID=2702ad04
DTITLE=The Stairs - Woman Gone and Say Goodbye
DYEAR=1992
DGENRE=Blues
TTITLE0=Woman Gone and Say Goodbye
TTITLE1=You Don't Love Me (You Don't Care)
TTITLE2=Russian Spy and I
TTITLE3=Yes it is it's True
EXTD=
EXTT0=
EXTT1=
EXTT2=
EXTT3=
PLAYORDER=
